<?xml version="1.0" standalone="no"?><!DOCTYPE svg PUBLIC "-//W3C//DTD SVG 1.1//EN" "http://www.w3.org/Graphics/SVG/1.1/DTD/svg11.dtd"><svg t="1693624105043" class="icon" viewBox="0 0 1024 1024" version="1.1" xmlns="http://www.w3.org/2000/svg" p-id="4187" xmlns:xlink="http://www.w3.org/1999/xlink" width="200" height="200"><path d="M362.667733 384l-21.333333 42.666667-21.333333-42.666667h42.666666z" fill="#B0BAC6" p-id="4188"></path><path d="M533.3344 128v64h-85.333333V119.893333L384.001067 64V21.333333h149.333333v42.666667h64v64h-64zM149.3344 64V21.333333h149.333333v42.666667l-64 55.893333V192H149.3344V128H85.3344V64h64z" fill="#F6CD85" p-id="4189"></path><path d="M832.001067 938.666667h85.333333v64h-85.333333zM362.667733 917.333333h85.333334v85.333334h-85.333334zM213.3344 917.333333h85.333333v85.333334h-85.333333z" fill="#B0BAC6" p-id="4190"></path><path d="M362.667733 832h85.333334v85.333333h-85.333334z" fill="#E9C2B9" p-id="4191"></path><path d="M426.667733 192l-56.533333 94.293333A33.834667 33.834667 0 0 1 341.3344 298.666667a33.834667 33.834667 0 0 1-28.8-12.373334L256.001067 192z" fill="#F6CD85" p-id="4192"></path><path d="M621.867733 192A39.509333 39.509333 0 0 1 661.3344 231.466667v0.213333a38.848 38.848 0 0 1-8.32 24.106667C586.027733 255.146667 533.3344 245.973333 533.3344 234.666667V192zM149.3344 192v42.666667c0 11.093333-62.72 20.48-119.68 21.12A38.848 38.848 0 0 1 21.3344 231.68v-0.213333A39.509333 39.509333 0 0 1 60.801067 192z" fill="#F6C8A4" p-id="4193"></path><path d="M533.3344 234.666667c0 11.306667 52.693333 20.48 119.68 21.12a40.341333 40.341333 0 0 1-13.44 11.093333L533.3344 320zM149.3344 234.666667v85.333333l-106.24-53.12a40.341333 40.341333 0 0 1-13.44-11.093333C86.6144 255.146667 149.3344 245.76 149.3344 234.666667z" fill="#CDABA5" p-id="4194"></path><path d="M1002.667733 384c0 94.293333-38.186667 170.666667-85.333333 170.666667l-1.92 0.213333a126.592 126.592 0 0 0-40.106667-73.6C880.8544 426.666667 935.681067 384 1002.667733 384zM341.3344 426.666667l21.333333-42.666667h-42.666666z m192-106.666667v170.666667a42.794667 42.794667 0 0 1-42.666667 42.666666H192.001067a42.794667 42.794667 0 0 1-42.666667-42.666666V192h106.666667l56.533333 94.293333A33.834667 33.834667 0 0 0 341.3344 298.666667a33.834667 33.834667 0 0 0 28.8-12.373334L426.667733 192h106.666667v128z" fill="#F6C8A4" p-id="4195"></path><path d="M875.307733 481.28a126.592 126.592 0 0 1 40.106667 73.6A114.368 114.368 0 0 1 917.3344 576v362.666667h-85.333333v-106.666667H298.667733v85.333333h-85.333333V533.333333h277.333333a42.794667 42.794667 0 0 0 42.666667-42.666666v-42.666667h256a126.677333 126.677333 0 0 1 85.973333 33.28z" fill="#F6C8A4" p-id="4196"></path><path d="M490.667733 554.666667H192.001067a64 64 0 0 1-64-64v-170.666667h42.666666v170.666667a21.333333 21.333333 0 0 0 21.333334 21.333333h298.666666a21.333333 21.333333 0 0 0 21.333334-21.333333v-170.666667h42.666666v170.666667a64 64 0 0 1-64 64zM234.667733 170.666667h213.333334v42.666666H234.667733z" fill="#2A3244" p-id="4197"></path><path d="M149.3344 341.333333a21.333333 21.333333 0 0 1-9.536-2.24L33.5584 285.866667a61.866667 61.866667 0 0 1-20.885333-17.066667A59.733333 59.733333 0 0 1 0.001067 231.68 60.906667 60.906667 0 0 1 60.801067 170.666667H149.3344a21.333333 21.333333 0 0 1 21.333333 21.333333v128a21.333333 21.333333 0 0 1-21.333333 21.333333z m-88.533333-128a18.154667 18.154667 0 0 0-18.133334 18.133334 17.685333 17.685333 0 0 0 3.797334 11.2 19.349333 19.349333 0 0 0 6.4 5.290666L128.001067 285.482667V213.333333zM533.3344 341.333333a21.333333 21.333333 0 0 1-21.333333-21.333333V192a21.333333 21.333333 0 0 1 21.333333-21.333333h88.533333A60.864 60.864 0 0 1 682.667733 231.466667a60.053333 60.053333 0 0 1-12.8 37.44 61.056 61.056 0 0 1-20.416 16.896l-106.538666 53.333333A21.333333 21.333333 0 0 1 533.3344 341.333333z m21.333333-128v72.149334l75.370667-37.696a18.346667 18.346667 0 0 0 5.994667-4.906667 17.728 17.728 0 0 0 3.968-11.2 18.197333 18.197333 0 0 0-18.133334-18.346667z" fill="#2A3244" p-id="4198"></path><path d="M234.667733 213.333333H149.3344a21.333333 21.333333 0 0 1-21.333333-21.333333V149.333333H85.3344a21.333333 21.333333 0 0 1-21.333333-21.333333V64a21.333333 21.333333 0 0 1 21.333333-21.333333h42.666667V21.333333a21.333333 21.333333 0 0 1 21.333333-21.333333h149.333333a21.333333 21.333333 0 0 1 21.333334 21.333333v42.666667a21.333333 21.333333 0 0 1-7.296 16.064L256.001067 129.578667V192a21.333333 21.333333 0 0 1-21.333334 21.333333zM170.667733 170.666667h42.666667V119.893333a21.333333 21.333333 0 0 1 7.296-16.064L277.3344 54.314667V42.666667H170.667733v21.333333a21.333333 21.333333 0 0 1-21.333333 21.333333H106.667733v21.333334h42.666667a21.333333 21.333333 0 0 1 21.333333 21.333333zM533.3344 213.333333h-85.333333a21.333333 21.333333 0 0 1-21.333334-21.333333V129.578667l-56.704-49.514667A21.333333 21.333333 0 0 1 362.667733 64V21.333333a21.333333 21.333333 0 0 1 21.333334-21.333333h149.333333a21.333333 21.333333 0 0 1 21.333333 21.333333v21.333334h42.666667a21.333333 21.333333 0 0 1 21.333333 21.333333v64a21.333333 21.333333 0 0 1-21.333333 21.333333h-42.666667v42.666667a21.333333 21.333333 0 0 1-21.333333 21.333333z m-64-42.666666h42.666667V128a21.333333 21.333333 0 0 1 21.333333-21.333333h42.666667V85.333333h-42.666667a21.333333 21.333333 0 0 1-21.333333-21.333333V42.666667h-106.666667v11.648l56.704 49.514666A21.333333 21.333333 0 0 1 469.3344 119.893333zM448.001067 1024h-85.333334a21.333333 21.333333 0 0 1-21.333333-21.333333v-170.666667h42.666667v149.333333h42.666666v-149.333333h42.666667v170.666667a21.333333 21.333333 0 0 1-21.333333 21.333333z" fill="#2A3244" p-id="4199"></path><path d="M917.3344 1024h-85.333333a21.333333 21.333333 0 0 1-21.333334-21.333333v-149.333334H320.001067v149.333334a21.333333 21.333333 0 0 1-21.333334 21.333333h-85.333333a21.333333 21.333333 0 0 1-21.333333-21.333333V533.333333h42.666666v448h42.666667v-149.333333a21.333333 21.333333 0 0 1 21.333333-21.333333h533.333334a21.333333 21.333333 0 0 1 21.333333 21.333333v149.333333h42.666667V576a92.224 92.224 0 0 0-1.557334-17.194667A106.666667 106.666667 0 0 0 789.3344 469.333333H533.3344v-42.666666h256a149.333333 149.333333 0 0 1 147.2 124.8A133.845333 133.845333 0 0 1 938.667733 576v426.666667a21.333333 21.333333 0 0 1-21.333333 21.333333z" fill="#2A3244" p-id="4200"></path><path d="M832.001067 853.333333c-136.384 0-192-55.616-192-192h42.666666c0 111.637333 37.696 149.333333 149.333334 149.333334zM917.3344 576v-42.666667c27.413333 0 57.749333-52.544 63.146667-126.122666a95.018667 95.018667 0 0 0-83.946667 76.224A49.514667 49.514667 0 0 0 896.001067 490.666667h-42.666667a87.274667 87.274667 0 0 1 0.853333-12.416C860.8224 412.736 924.715733 362.666667 1002.667733 362.666667a21.333333 21.333333 0 0 1 21.333334 21.333333c0 109.461333-45.845333 192-106.666667 192zM832.001067 917.333333h85.333333v42.666667h-85.333333zM213.3344 896h85.333333v42.666667h-85.333333zM362.667733 896h85.333334v42.666667h-85.333334zM661.3344 277.333333c-3.306667 0-6.613333 0-9.92-0.277333C512.001067 275.776 512.001067 246.976 512.001067 234.666667h42.666666a15.701333 15.701333 0 0 0-5.738666-12.586667 312.32 312.32 0 0 0 104.298666 12.373333c3.648 0.234667 5.888 0.170667 8.106667 0.213334zM21.3344 277.333333v-42.666666c2.261333 0 4.458667 0 6.72-0.149334a355.072 355.072 0 0 0 106.346667-13.269333A16.490667 16.490667 0 0 0 128.001067 234.666667h42.666666c0 10.112 0 40.874667-140.8 42.453333-1.92 0.213333-5.226667 0.213333-8.533333 0.213333zM341.3344 320a53.973333 53.973333 0 0 1-47.104-22.741333l-56.533333-94.293334 36.608-21.930666 56.533333 94.293333A27.733333 27.733333 0 0 0 341.3344 277.333333a19.434667 19.434667 0 0 0 11.072-2.752l55.957333-93.546666 36.608 21.930666-56.533333 94.293334A53.973333 53.973333 0 0 1 341.3344 320zM341.3344 448a21.333333 21.333333 0 0 1-19.093333-11.797333l-21.333334-42.666667A21.333333 21.333333 0 0 1 320.001067 362.666667h42.666666a21.333333 21.333333 0 0 1 19.093334 30.869333l-21.333334 42.666667A21.333333 21.333333 0 0 1 341.3344 448z" fill="#2A3244" p-id="4201"></path><path d="M320.001067 426.666667h42.666666v64h-42.666666zM448.001067 405.333333a64 64 0 0 1-64-64h42.666666a21.333333 21.333333 0 0 0 42.666667 0h42.666667a64 64 0 0 1-64 64zM234.667733 405.333333a64 64 0 0 1-64-64h42.666667a21.333333 21.333333 0 0 0 42.666667 0h42.666666a64 64 0 0 1-64 64z" fill="#2A3244" p-id="4202"></path></svg>