<svg class="icon" viewBox="0 0 1024 1024" xmlns="http://www.w3.org/2000/svg" width="200" height="200"><path d="m362.668 384-21.334 42.667L320.001 384h42.667z" fill="#B0BAC6"/><path d="M533.334 128v64h-85.333v-72.107l-64-55.893V21.333h149.333V64h64v64h-64zm-384-64V21.333h149.334V64l-64 55.893V192h-85.334v-64h-64V64h64z" fill="#F6CD85"/><path d="M832.001 938.667h85.333v64h-85.333zm-469.333-21.334H448v85.334h-85.333zm-149.334 0h85.334v85.334h-85.334z" fill="#B0BAC6"/><path d="M362.668 832H448v85.333h-85.333z" fill="#E9C2B9"/><path d="m426.668 192-56.534 94.293a33.835 33.835 0 0 1-28.8 12.374 33.835 33.835 0 0 1-28.8-12.374L256.001 192z" fill="#F6CD85"/><path d="M621.868 192a39.51 39.51 0 0 1 39.466 39.467v.213a38.848 38.848 0 0 1-8.32 24.107c-66.986-.64-119.68-9.814-119.68-21.12V192zm-472.534 0v42.667c0 11.093-62.72 20.48-119.68 21.12a38.848 38.848 0 0 1-8.32-24.107v-.213A39.51 39.51 0 0 1 60.801 192z" fill="#F6C8A4"/><path d="M533.334 234.667c0 11.306 52.694 20.48 119.68 21.12a40.341 40.341 0 0 1-13.44 11.093L533.334 320zm-384 0V320l-106.24-53.12a40.341 40.341 0 0 1-13.44-11.093c56.96-.64 119.68-10.027 119.68-21.12z" fill="#CDABA5"/><path d="M1002.668 384c0 94.293-38.187 170.667-85.334 170.667l-1.92.213a126.592 126.592 0 0 0-40.106-73.6c5.546-54.613 60.373-97.28 127.36-97.28zm-661.334 42.667L362.668 384H320zm192-106.667v170.667a42.795 42.795 0 0 1-42.666 42.666H192a42.795 42.795 0 0 1-42.667-42.666V192h106.667l56.533 94.293a33.835 33.835 0 0 0 28.8 12.374 33.835 33.835 0 0 0 28.8-12.374L426.668 192h106.666v128z" fill="#F6C8A4"/><path d="M875.308 481.28a126.592 126.592 0 0 1 40.106 73.6 114.368 114.368 0 0 1 1.92 21.12v362.667h-85.333V832H298.668v85.333h-85.334v-384h277.334a42.795 42.795 0 0 0 42.666-42.666V448h256a126.677 126.677 0 0 1 85.974 33.28z" fill="#F6C8A4"/><path d="M490.668 554.667H192a64 64 0 0 1-64-64V320h42.667v170.667A21.333 21.333 0 0 0 192 512h298.667A21.333 21.333 0 0 0 512 490.667V320h42.667v170.667a64 64 0 0 1-64 64zm-256-384H448v42.666H234.668z" fill="#2A3244"/><path d="M149.334 341.333a21.333 21.333 0 0 1-9.536-2.24l-106.24-53.226A61.867 61.867 0 0 1 12.673 268.8 59.733 59.733 0 0 1 .001 231.68a60.907 60.907 0 0 1 60.8-61.013h88.533A21.333 21.333 0 0 1 170.668 192v128a21.333 21.333 0 0 1-21.334 21.333zm-88.533-128a18.155 18.155 0 0 0-18.133 18.134 17.685 17.685 0 0 0 3.797 11.2 19.35 19.35 0 0 0 6.4 5.29l75.136 37.526v-72.15zm472.533 128A21.333 21.333 0 0 1 512.001 320V192a21.333 21.333 0 0 1 21.333-21.333h88.534a60.864 60.864 0 0 1 60.8 60.8 60.053 60.053 0 0 1-12.8 37.44 61.056 61.056 0 0 1-20.416 16.896l-106.539 53.333a21.333 21.333 0 0 1-9.579 2.197zm21.334-128v72.15l75.37-37.696a18.347 18.347 0 0 0 5.995-4.907 17.728 17.728 0 0 0 3.968-11.2 18.197 18.197 0 0 0-18.133-18.347z" fill="#2A3244"/><path d="M234.668 213.333h-85.334A21.333 21.333 0 0 1 128.001 192v-42.667H85.334A21.333 21.333 0 0 1 64.001 128V64a21.333 21.333 0 0 1 21.333-21.333h42.667V21.333A21.333 21.333 0 0 1 149.334 0h149.334A21.333 21.333 0 0 1 320 21.333V64a21.333 21.333 0 0 1-7.296 16.064l-56.704 49.515V192a21.333 21.333 0 0 1-21.333 21.333zm-64-42.666h42.666v-50.774a21.333 21.333 0 0 1 7.296-16.064l56.704-49.514V42.667H170.668V64a21.333 21.333 0 0 1-21.334 21.333h-42.666v21.334h42.666A21.333 21.333 0 0 1 170.668 128zm362.666 42.666h-85.333A21.333 21.333 0 0 1 426.668 192v-62.421l-56.704-49.515A21.333 21.333 0 0 1 362.668 64V21.333A21.333 21.333 0 0 1 384 0h149.333a21.333 21.333 0 0 1 21.334 21.333v21.334h42.666A21.333 21.333 0 0 1 618.668 64v64a21.333 21.333 0 0 1-21.334 21.333h-42.666V192a21.333 21.333 0 0 1-21.334 21.333zm-64-42.666h42.667V128a21.333 21.333 0 0 1 21.333-21.333h42.667V85.333h-42.667A21.333 21.333 0 0 1 512.001 64V42.667H405.334v11.648l56.704 49.514a21.333 21.333 0 0 1 7.296 16.064zM448.001 1024h-85.333a21.333 21.333 0 0 1-21.334-21.333V832h42.667v149.333h42.667V832h42.666v170.667A21.333 21.333 0 0 1 448.001 1024z" fill="#2A3244"/><path d="M917.334 1024h-85.333a21.333 21.333 0 0 1-21.333-21.333V853.333H320v149.334A21.333 21.333 0 0 1 298.668 1024h-85.334a21.333 21.333 0 0 1-21.333-21.333V533.333h42.667v448h42.666V832a21.333 21.333 0 0 1 21.334-21.333H832A21.333 21.333 0 0 1 853.334 832v149.333h42.667V576a92.224 92.224 0 0 0-1.557-17.195 106.667 106.667 0 0 0-105.11-89.472h-256v-42.666h256a149.333 149.333 0 0 1 147.2 124.8A133.845 133.845 0 0 1 938.668 576v426.667A21.333 21.333 0 0 1 917.334 1024z" fill="#2A3244"/><path d="M832.001 853.333c-136.384 0-192-55.616-192-192h42.667c0 111.638 37.696 149.334 149.333 149.334zM917.334 576v-42.667c27.414 0 57.75-52.544 63.147-126.122a95.019 95.019 0 0 0-83.947 76.224 49.515 49.515 0 0 0-.533 7.232h-42.667a87.275 87.275 0 0 1 .854-12.416c6.634-65.515 70.528-115.584 148.48-115.584A21.333 21.333 0 0 1 1024 384c0 109.461-45.845 192-106.667 192zm-85.333 341.333h85.333V960h-85.333zM213.334 896h85.334v42.667h-85.334zm149.334 0H448v42.667h-85.333zm298.666-618.667c-3.306 0-6.613 0-9.92-.277-139.413-1.28-139.413-30.08-139.413-42.39h42.667a15.701 15.701 0 0 0-5.739-12.586 312.32 312.32 0 0 0 104.299 12.373c3.648.235 5.888.171 8.106.214zm-640 0v-42.666c2.262 0 4.46 0 6.72-.15a355.072 355.072 0 0 0 106.347-13.269 16.49 16.49 0 0 0-6.4 13.419h42.667c0 10.112 0 40.874-140.8 42.453-1.92.213-5.227.213-8.534.213zm320 42.667a53.973 53.973 0 0 1-47.104-22.741l-56.533-94.294 36.608-21.93 56.533 94.293a27.733 27.733 0 0 0 10.496 2.005 19.435 19.435 0 0 0 11.072-2.752l55.958-93.546 36.608 21.93-56.534 94.294A53.973 53.973 0 0 1 341.334 320zm0 128a21.333 21.333 0 0 1-19.093-11.797l-21.333-42.667A21.333 21.333 0 0 1 320 362.666h42.667a21.333 21.333 0 0 1 19.093 30.87l-21.333 42.667A21.333 21.333 0 0 1 341.334 448z" fill="#2A3244"/><path d="M320.001 426.667h42.667v64H320zm128-21.334a64 64 0 0 1-64-64h42.667a21.333 21.333 0 0 0 42.666 0h42.667a64 64 0 0 1-64 64zm-213.333 0a64 64 0 0 1-64-64h42.666a21.333 21.333 0 0 0 42.667 0h42.667a64 64 0 0 1-64 64z" fill="#2A3244"/></svg>